<?xml version='1.0' encoding='iso-8859-1'?>
<svg version="1.1" xmlns="http://www.w3.org/2000/svg" viewBox="0 0 295.5 295.5" xmlns:xlink="http://www.w3.org/1999/xlink" enable-background="new 0 0 295.5 295.5">
  <g>
    <g>
      <path d="m181.066,32.5c-0.352-18.008-14.889-32.5-32.984-32.5-18.093,0-32.63,14.492-32.982,32.5h-66.35v82 148h91v10c0,12.683 10.65,23 23.333,23h83.667v-16h-83.667c-3.859,0-7.333-3.141-7.333-7v-10h91v-148-82h-65.684zm-32.984-16.5c9.151,0 16.617,7.345 16.968,16.5h-33.934c0.351-9.155 7.816-16.5 16.966-16.5zm82.668,89.438c-10-0.322-16.516-1.941-22.708-3.649-7.642-2.108-15.461-4.288-31.044-4.288s-23.444,2.18-31.085,4.288c-6.92,1.909-13.436,3.712-26.853,3.712-13.416,0-20.108-1.803-27.027-3.712-6.956-1.919-14.283-3.892-27.283-4.231v-49.058h166v56.938zm-74,83.062v-16h16v-16h16v16h15v16h-15v15h-16v-15h-16zm-3.467,25h-16.789l-4.203-13h-18.76l-4.203,13h-16.795l22.646-66h15.549l22.555,66z"/>
      <polygon points="122.926,170.461 117.85,186.5 127.975,186.5   "/>
    </g>
  </g>
</svg>
